<svg xmlns="http://www.w3.org/2000/svg" width="520" height="360" viewBox="0 0 520 360">
<rect width="100%" height="100%" fill="#fbfbf8"/>
<rect x="10" y="10" width="500" height="340" fill="none" stroke="#d8ddd6" stroke-width="1"/>
<text x="18" y="30" font-family="Arial" font-size="15" font-weight="700" fill="#202421">bedroom after: 2/2 relations</text>
<g transform="translate(45.71,145.65) rotate(0.23)">
<rect x="-17.71" y="-5.08" width="35.41" height="10.16" rx="3" fill="#dbe7f3" stroke="#39423d" stroke-width="1" opacity="0.88"/>
</g>
<text x="45.71" y="149.65" text-anchor="middle" font-family="Arial" font-size="9" fill="#202421">dressing table</text>
<g transform="translate(243.24,231.45) rotate(-0.12)">
<rect x="-41.70" y="-55.89" width="83.41" height="111.78" rx="3" fill="#d9eadf" stroke="#39423d" stroke-width="1" opacity="0.88"/>
</g>
<text x="243.24" y="235.45" text-anchor="middle" font-family="Arial" font-size="9" fill="#202421">double bed</text>
<g transform="translate(128.08,130.65) rotate(-0.12)">
<rect x="-18.14" y="-9.22" width="36.28" height="18.45" rx="3" fill="#f5dfc4" stroke="#39423d" stroke-width="1" opacity="0.88"/>
</g>
<text x="128.08" y="134.65" text-anchor="middle" font-family="Arial" font-size="9" fill="#202421">nightstand</text>
<g transform="translate(290.93,237.23) rotate(0.25)">
<rect x="-10.14" y="-10.41" width="20.28" height="20.83" rx="3" fill="#eadcf4" stroke="#39423d" stroke-width="1" opacity="0.88"/>
</g>
<text x="290.93" y="241.23" text-anchor="middle" font-family="Arial" font-size="9" fill="#202421">table</text>
<g transform="translate(295.45,92.60) rotate(90.30)">
<rect x="-20.13" y="-19.94" width="40.27" height="39.89" rx="3" fill="#f5d2cf" stroke="#39423d" stroke-width="1" opacity="0.88"/>
</g>
<text x="295.45" y="96.60" text-anchor="middle" font-family="Arial" font-size="9" fill="#202421">pendant lamp</text>
<g transform="translate(435.55,232.71) rotate(89.99)">
<rect x="-56.45" y="-16.91" width="112.89" height="33.82" rx="3" fill="#d8eceb" stroke="#39423d" stroke-width="1" opacity="0.88"/>
</g>
<text x="435.55" y="236.71" text-anchor="middle" font-family="Arial" font-size="9" fill="#202421">wardrobe</text>
<g transform="translate(349.62,136.78) rotate(-0.23)">
<rect x="-18.14" y="-9.22" width="36.28" height="18.45" rx="3" fill="#f0e8be" stroke="#39423d" stroke-width="1" opacity="0.88"/>
</g>
<text x="349.62" y="140.78" text-anchor="middle" font-family="Arial" font-size="9" fill="#202421">nightstand</text>
</svg>